<svg width="276" height="46" viewBox="0 0 276 46" fill="none" xmlns="http://www.w3.org/2000/svg">
<rect x="2.5" y="2.5" width="271" height="25" fill="#694C45" stroke="#694C45" stroke-width="5"/>
<path d="M7.07111 42.5809C2.91094 38.3108 2.34309 30.0546 3.01254 26.9051L26.4998 29.9063C24.9998 31.9063 12.9998 30.4062 9.29764 34.5895L8.87326 41.5532L7.07111 42.5809Z" fill="#694C45"/>
<path d="M236 22.5C251.2 22.9 266.833 4.83333 270.5 1H81C95 2 103.667 4.5 107 5C170.5 10.5 192.5 19.5 236 22.5Z" fill="#875E54"/>
<path d="M1 1H61V2.5L13 5C3.8 7.4 1.83333 14.6667 2.5 18H1V1Z" fill="#875E54"/>
<path d="M27.5 28H147.5V26.5L36 16L22 23.5C26.8 24.3 27.5 27 27.5 28Z" fill="#808088"/>
</svg>
