<svg width="112" height="92" viewBox="0 0 112 92" fill="none" xmlns="http://www.w3.org/2000/svg">
<g filter="url(#filter0_d_21_401)">
<path d="M4.90931 6.11955C-2.58123 15.5174 3.44022 28.4747 5.0877 34.6305C0.114541 38.8084 -0.69031 47.4558 0.705319 52.8005C2.86187 61.0605 11.8983 66.1916 15.2982 64.3727C19.8704 61.9265 24.4478 66.2933 25.8881 68.106C30.3445 79.2778 37.9402 81.2921 41.9336 82.5438C48.7794 84.6894 56.2013 79.625 58.6956 77.2954C65.2836 70.1816 73.2341 73.1013 76.3858 75.4504C84.8273 81.7421 93.6243 80.7041 96.7614 76.1002C99.8985 71.4963 101.366 61.7929 95.8022 51.9787C89.2173 41.6501 82.6248 42.4036 81.2364 31.7579C81.4145 17.5013 71.5783 10.6255 67.7981 8.68296C62.8002 6.11477 53.5794 6.46276 48.8032 8.07717C40.4286 10.5084 32.1498 9.07182 28.8183 5.99503C17.2808 -4.66038 7.51982 2.84332 4.90931 6.11955Z" fill="white"/>
</g>
<defs>
<filter id="filter0_d_21_401" x="0.09375" y="0.485352" width="111.454" height="90.5762" filterUnits="userSpaceOnUse" color-interpolation-filters="sRGB">
<feFlood flood-opacity="0" result="BackgroundImageFix"/>
<feColorMatrix in="SourceAlpha" type="matrix" values="0 0 0 0 0 0 0 0 0 0 0 0 0 0 0 0 0 0 127 0" result="hardAlpha"/>
<feOffset dx="8" dy="4"/>
<feGaussianBlur stdDeviation="2"/>
<feComposite in2="hardAlpha" operator="out"/>
<feColorMatrix type="matrix" values="0 0 0 0 1 0 0 0 0 1 0 0 0 0 1 0 0 0 0.25 0"/>
<feBlend mode="normal" in2="BackgroundImageFix" result="effect1_dropShadow_21_401"/>
<feBlend mode="normal" in="SourceGraphic" in2="effect1_dropShadow_21_401" result="shape"/>
</filter>
</defs>
</svg>
