<svg width="397" height="2095" viewBox="0 0 397 2095" fill="none" xmlns="http://www.w3.org/2000/svg">
<g filter="url(#filter0_d_19_63)">
<rect x="93.5" y="1346.5" width="196" height="25" stroke="#875E54" stroke-opacity="0.5" stroke-width="5"/>
<rect x="93.5" y="716.5" width="196" height="25" stroke="#875E54" stroke-opacity="0.5" stroke-width="5"/>
<rect x="89.5" y="90.5" width="204" height="25" stroke="#875E54" stroke-opacity="0.5" stroke-width="5"/>
<path d="M307.5 77.4999V1993.5H76.5V77.4999H307.5ZM92.5 1977.5H291.5V93.4999H92.5V1977.5Z" fill="#875E54"/>
<path d="M76.5 63.4999H307.5V93.4999H76.5V63.4999Z" fill="#875E54"/>
<path d="M307.5 63.4999V93.4999H76.5V63.4999H307.5ZM77.5 92.4999H306.5V64.4999H77.5V92.4999Z" fill="#875E54"/>
<path d="M77 49.0299V63.4999H135V3.10308C132.6 1.59316 126.667 0.796442 124 0.58682C90.4 -1.4264 78.6667 32.0434 77 49.0299Z" fill="#875E54"/>
<path d="M88.1191 17.3925C95.5399 7.04309 107.026 -0.931049 124.03 0.0878169H124.039C125.388 0.193871 127.558 0.44874 129.696 0.867114C131.812 1.28106 133.98 1.87 135.267 2.67961L135.5 2.82707V63.9999H76.5V49.0058L76.502 48.9814C77.3415 40.4252 80.7136 27.7207 88.1191 17.3925ZM123.97 1.08586C107.375 0.0916588 96.1942 7.84597 88.9316 17.9745C81.6591 28.1172 78.3302 40.6303 77.5 49.0605V62.9999H134.5V3.3886C133.354 2.75193 131.481 2.23432 129.504 1.84758C127.414 1.43865 125.288 1.18985 123.97 1.08586Z" fill="#875E54"/>
<path d="M307 49.0299V63.4999H249V3.10308C251.4 1.59316 257.333 0.796442 260 0.58682C293.6 -1.4264 305.333 32.0434 307 49.0299Z" fill="#875E54"/>
<path d="M295.881 17.3925C288.46 7.04309 276.974 -0.931049 259.97 0.0878169H259.961C258.612 0.193871 256.442 0.44874 254.304 0.867114C252.188 1.28106 250.02 1.87 248.733 2.67961L248.5 2.82707V63.9999H307.5V49.0058L307.498 48.9814C306.659 40.4252 303.286 27.7207 295.881 17.3925ZM260.03 1.08586C276.625 0.0916588 287.806 7.84597 295.068 17.9745C302.341 28.1172 305.67 40.6303 306.5 49.0605V62.9999H249.5V3.3886C250.646 2.75193 252.519 2.23432 254.496 1.84758C256.586 1.43865 258.712 1.18985 260.03 1.08586Z" fill="#875E54"/>
<path d="M76.5 2023.5H307.5V1993.5H76.5V2023.5Z" fill="#875E54"/>
<path d="M77 2037.97V2023.5H135V2083.9C132.6 2085.41 126.667 2086.2 124 2086.41C90.4 2088.43 78.6667 2054.96 77 2037.97Z" fill="#875E54"/>
<path d="M88.1191 2069.61C95.5399 2079.96 107.026 2087.93 124.03 2086.91H124.039C125.388 2086.81 127.558 2086.55 129.696 2086.13C131.812 2085.72 133.98 2085.13 135.267 2084.32L135.5 2084.17V2023H76.5V2037.99L76.502 2038.02C77.3415 2046.57 80.7136 2059.28 88.1191 2069.61ZM123.97 2085.91C107.375 2086.91 96.1942 2079.15 88.9316 2069.03C81.6591 2058.88 78.3302 2046.37 77.5 2037.94V2024H134.5V2083.61C133.354 2084.25 131.481 2084.77 129.504 2085.15C127.414 2085.56 125.288 2085.81 123.97 2085.91Z" fill="#875E54"/>
<path d="M307 2037.97V2023.5H249V2083.9C251.4 2085.41 257.333 2086.2 260 2086.41C293.6 2088.43 305.333 2054.96 307 2037.97Z" fill="#875E54"/>
<path d="M295.881 2069.61C288.46 2079.96 276.974 2087.93 259.97 2086.91H259.961C258.612 2086.81 256.442 2086.55 254.304 2086.13C252.188 2085.72 250.02 2085.13 248.733 2084.32L248.5 2084.17V2023H307.5V2037.99L307.498 2038.02C306.659 2046.57 303.286 2059.28 295.881 2069.61ZM260.03 2085.91C276.625 2086.91 287.806 2079.15 295.068 2069.03C302.341 2058.88 305.67 2046.37 306.5 2037.94V2024H249.5V2083.61C250.646 2084.25 252.519 2084.77 254.496 2085.15C256.586 2085.56 258.712 2085.81 260.03 2085.91Z" fill="#875E54"/>
<path d="M38 311.5C60 259.5 73.5 163.167 77.5 121.5L77 720H73C65.4 522.4 46.5 365.333 38 311.5Z" fill="#875E54"/>
<path d="M78 121.5L77.5 720.5H72.5186L72.5 720.019C64.9007 522.438 46.0025 365.39 37.5059 311.578L37.4834 311.436L37.5391 311.306C48.5169 285.358 57.3851 248.319 64.0088 212.534C70.6309 176.758 75.0032 142.272 77.002 121.452L78 121.5ZM76.9912 131.284C74.6962 152.283 70.6721 182.025 64.9912 212.716C58.3761 248.454 49.512 285.517 38.5156 311.562C47.0227 365.505 65.8752 522.279 73.4814 719.5H76.5L76.9912 131.284Z" fill="#875E54"/>
<path d="M37.5 1788C59.5 1840 73 1936.33 77 1978L76.5 1379.5H72.5C64.9 1577.1 46 1734.17 37.5 1788Z" fill="#875E54"/>
<path d="M77.5 1978L77 1379H72.0186L72 1379.48C64.4007 1577.06 45.5025 1734.11 37.0059 1787.92L36.9834 1788.06L37.0391 1788.19C48.0169 1814.14 56.8851 1851.18 63.5088 1886.97C70.1309 1922.74 74.5032 1957.23 76.502 1978.05L77.5 1978ZM76.4912 1968.22C74.1962 1947.22 70.1721 1917.47 64.4912 1886.78C57.8761 1851.05 49.012 1813.98 38.0156 1787.94C46.5227 1733.99 65.3752 1577.22 72.9814 1380H76L76.4912 1968.22Z" fill="#875E54"/>
<path d="M53.5 887C63.9727 834.6 70.9546 773.5 73.1364 749.5H77.5L76.4091 1062.5H53.5V887Z" fill="#875E54"/>
<path d="M78.002 749L76.9072 1063H53V886.95L53.0098 886.902C63.4777 834.526 70.4577 773.445 72.6387 749.455L72.6797 749H78.002ZM73.5928 750C71.3648 774.311 64.4064 834.963 54 887.048V1062H75.9111L76.998 750H73.5928Z" fill="#875E54"/>
<path d="M53.5 1212C63.9727 1264.4 70.9546 1325.5 73.1364 1349.5H77.5L76.4091 1036.5H53.5V1212Z" fill="#875E54"/>
<path d="M78.002 1350L76.9072 1036H53V1212.05L53.0098 1212.1C63.4777 1264.47 70.4577 1325.55 72.6387 1349.54L72.6797 1350H78.002ZM73.5928 1349C71.3648 1324.69 64.4064 1264.04 54 1211.95V1037H75.9111L76.998 1349H73.5928Z" fill="#875E54"/>
<path d="M72.3373 753.756C73.6747 737.851 73.0165 724.978 72.5203 720.529L77.9087 720.164L76.7302 753.91L72.3373 753.756Z" fill="#875E54"/>
<path d="M71.7723 1340.54C73.2955 1359.1 72.5798 1374.11 72.0315 1379.3L78.0646 1379.73L76.6899 1340.37L71.7723 1340.54Z" fill="#875E54"/>
<path d="M346.065 311.5C324.065 259.5 310.565 163.167 306.565 121.5L307.065 720H311.065C318.665 522.4 337.565 365.333 346.065 311.5Z" fill="#875E54"/>
<path d="M306.065 121.5L306.565 720.5H311.546L311.565 720.019C319.164 522.438 338.062 365.39 346.559 311.578L346.581 311.436L346.526 311.306C335.548 285.358 326.679 248.319 320.056 212.534C313.434 176.758 309.061 142.272 307.063 121.452L306.065 121.5ZM307.073 131.284C309.368 152.283 313.392 182.025 319.073 212.716C325.688 248.454 334.553 285.517 345.549 311.562C337.042 365.505 318.189 522.279 310.583 719.5H307.565L307.073 131.284Z" fill="#875E54"/>
<path d="M346.565 1788C324.565 1840 311.065 1936.33 307.065 1978L307.565 1379.5H311.565C319.165 1577.1 338.065 1734.17 346.565 1788Z" fill="#875E54"/>
<path d="M306.565 1978L307.065 1379H312.046L312.065 1379.48C319.664 1577.06 338.562 1734.11 347.059 1787.92L347.081 1788.06L347.026 1788.19C336.048 1814.14 327.179 1851.18 320.556 1886.97C313.934 1922.74 309.561 1957.23 307.563 1978.05L306.565 1978ZM307.573 1968.22C309.868 1947.22 313.892 1917.47 319.573 1886.78C326.188 1851.05 335.053 1813.98 346.049 1787.94C337.542 1733.99 318.689 1577.22 311.083 1380H308.065L307.573 1968.22Z" fill="#875E54"/>
<path d="M330.565 887C320.092 834.6 313.11 773.5 310.928 749.5H306.565L307.655 1062.5H330.565V887Z" fill="#875E54"/>
<path d="M306.063 749L307.157 1063H331.065V886.95L331.055 886.902C320.587 834.526 313.607 773.445 311.426 749.455L311.385 749H306.063ZM310.472 750C312.7 774.311 319.658 834.963 330.065 887.048V1062H308.153L307.067 750H310.472Z" fill="#875E54"/>
<path d="M330.565 1212C320.092 1264.4 313.11 1325.5 310.928 1349.5H306.565L307.655 1036.5H330.565V1212Z" fill="#875E54"/>
<path d="M306.063 1350L307.157 1036H331.065V1212.05L331.055 1212.1C320.587 1264.47 313.607 1325.55 311.426 1349.54L311.385 1350H306.063ZM310.472 1349C312.7 1324.69 319.658 1264.04 330.065 1211.95V1124.48V1037H308.153L307.067 1349H310.472Z" fill="#875E54"/>
<path d="M311.727 753.756C310.39 737.851 311.048 724.978 311.544 720.529L306.156 720.164L307.334 753.91L311.727 753.756Z" fill="#875E54"/>
<path d="M312.292 1340.54C310.769 1359.1 311.485 1374.11 312.033 1379.3L306 1379.73L307.375 1340.37L312.292 1340.54Z" fill="#875E54"/>
<path d="M47.04 1997.35C61.152 1990.45 77.56 1967.24 84 1956.5V2023.24C63.84 2022.32 41.16 2034.36 32.34 2040.5C24.948 2024.85 7.7 2009.05 0 2003.1L2.94 1997.35C18.06 2003.1 29.4 2005.98 47.04 1997.35Z" fill="#875E54"/>
<path d="M335.96 1997.35C321.848 1990.45 305.44 1967.24 299 1956.5V2023.24C319.16 2022.32 341.84 2034.36 350.66 2040.5C358.052 2024.85 375.3 2009.05 383 2003.1L380.06 1997.35C364.94 2003.1 353.6 2005.98 335.96 1997.35Z" fill="#875E54"/>
<path d="M112.5 1979.5C103.7 1972.7 94.8333 1955.33 91.5 1947.5V1979.5H112.5Z" fill="#875E54"/>
<path d="M270.5 1979.5C279.3 1972.7 288.167 1955.33 291.5 1947.5V1979.5H270.5Z" fill="#875E54"/>
<path d="M113.5 93.4999C104.7 100.3 95.8333 117.667 92.5 125.5V93.4999H113.5Z" fill="#875E54"/>
<path d="M271.5 93.4999C280.3 100.3 289.167 117.667 292.5 125.5V93.4999H271.5Z" fill="#875E54"/>
<path d="M37.5 80.9998C53.1 76.5998 70 86.8331 76.5 92.4998V63C46.9 58.6 35.8333 71.1666 34 78L37.5 80.9998Z" fill="#875E54"/>
<path d="M346.5 81.0027C330.9 76.6027 314 86.8361 307.5 92.5027V63.0029C337.1 58.6029 348.167 71.1696 350 78.0029L346.5 81.0027Z" fill="#875E54"/>
<path d="M99.5 1364.5C99.5 1426.36 94.1274 1476.5 87.5 1476.5C80.8726 1476.5 75.5 1426.36 75.5 1364.5C75.5 1302.64 80.8726 1252.5 87.5 1252.5C94.1274 1252.5 99.5 1302.64 99.5 1364.5Z" fill="#875E54"/>
<path d="M307.5 1364.5C307.5 1426.36 302.127 1476.5 295.5 1476.5C288.873 1476.5 283.5 1426.36 283.5 1364.5C283.5 1302.64 288.873 1252.5 295.5 1252.5C302.127 1252.5 307.5 1302.64 307.5 1364.5Z" fill="#875E54"/>
<path d="M99.5 734.5C99.5 796.356 94.1274 846.5 87.5 846.5C80.8726 846.5 75.5 796.356 75.5 734.5C75.5 672.644 80.8726 622.5 87.5 622.5C94.1274 622.5 99.5 672.644 99.5 734.5Z" fill="#875E54"/>
<path d="M307.5 734.5C307.5 796.356 302.127 846.5 295.5 846.5C288.873 846.5 283.5 796.356 283.5 734.5C283.5 672.644 288.873 622.5 295.5 622.5C302.127 622.5 307.5 672.644 307.5 734.5Z" fill="#875E54"/>
<path d="M135.5 33.7C135.493 33.2844 135.493 32.8838 135.5 32.4999V33.7C135.665 43.3895 139.775 61.1986 155.5 63.4999H135.5V33.7Z" fill="#875E54"/>
<path d="M248.5 33.7C248.507 33.2844 248.507 32.8838 248.5 32.4999V33.7C248.335 43.3895 244.225 61.1986 228.5 63.4999H248.5V33.7Z" fill="#875E54"/>
<path d="M249.5 2053.3C249.507 2053.72 249.507 2054.12 249.5 2054.5V2053.3C249.335 2043.61 245.225 2025.8 229.5 2023.5H249.5V2053.3Z" fill="#875E54"/>
<path d="M135.505 2053.3C135.498 2053.72 135.498 2054.12 135.505 2054.5V2053.3C135.67 2043.61 139.78 2025.8 155.505 2023.5H135.505V2053.3Z" fill="#875E54"/>
<path d="M307.5 77.4999V1993.5H76.5V77.4999H307.5ZM92.5 1977.5H291.5V93.4999H92.5V1977.5Z" fill="#875E54"/>
<path d="M76.5 63.4999H307.5V93.4999H76.5V63.4999Z" fill="#875E54"/>
<path d="M307.5 63.4999V93.4999H76.5V63.4999H307.5ZM77.5 92.4999H306.5V64.4999H77.5V92.4999Z" fill="#875E54"/>
<path d="M77 49.0299V63.4999H135V3.10308C132.6 1.59316 126.667 0.796442 124 0.58682C90.4 -1.4264 78.6667 32.0434 77 49.0299Z" fill="#875E54"/>
<path d="M88.1191 17.3925C95.5399 7.04309 107.026 -0.931049 124.03 0.0878169H124.039C125.388 0.193871 127.558 0.44874 129.696 0.867114C131.812 1.28106 133.98 1.87 135.267 2.67961L135.5 2.82707V63.9999H76.5V49.0058L76.502 48.9814C77.3415 40.4252 80.7136 27.7207 88.1191 17.3925ZM123.97 1.08586C107.375 0.0916588 96.1942 7.84597 88.9316 17.9745C81.6591 28.1172 78.3302 40.6303 77.5 49.0605V62.9999H134.5V3.3886C133.354 2.75193 131.481 2.23432 129.504 1.84758C127.414 1.43865 125.288 1.18985 123.97 1.08586Z" fill="#875E54"/>
<path d="M307 49.0299V63.4999H249V3.10308C251.4 1.59316 257.333 0.796442 260 0.58682C293.6 -1.4264 305.333 32.0434 307 49.0299Z" fill="#875E54"/>
<path d="M295.881 17.3925C288.46 7.04309 276.974 -0.931049 259.97 0.0878169H259.961C258.612 0.193871 256.442 0.44874 254.304 0.867114C252.188 1.28106 250.02 1.87 248.733 2.67961L248.5 2.82707V63.9999H307.5V49.0058L307.498 48.9814C306.659 40.4252 303.286 27.7207 295.881 17.3925ZM260.03 1.08586C276.625 0.0916588 287.806 7.84597 295.068 17.9745C302.341 28.1172 305.67 40.6303 306.5 49.0605V62.9999H249.5V3.3886C250.646 2.75193 252.519 2.23432 254.496 1.84758C256.586 1.43865 258.712 1.18985 260.03 1.08586Z" fill="#875E54"/>
<path d="M76.5 2023.5H307.5V1993.5H76.5V2023.5Z" fill="#875E54"/>
<path d="M77 2037.97V2023.5H135V2083.9C132.6 2085.41 126.667 2086.2 124 2086.41C90.4 2088.43 78.6667 2054.96 77 2037.97Z" fill="#875E54"/>
<path d="M88.1191 2069.61C95.5399 2079.96 107.026 2087.93 124.03 2086.91H124.039C125.388 2086.81 127.558 2086.55 129.696 2086.13C131.812 2085.72 133.98 2085.13 135.267 2084.32L135.5 2084.17V2023H76.5V2037.99L76.502 2038.02C77.3415 2046.57 80.7136 2059.28 88.1191 2069.61ZM123.97 2085.91C107.375 2086.91 96.1942 2079.15 88.9316 2069.03C81.6591 2058.88 78.3302 2046.37 77.5 2037.94V2024H134.5V2083.61C133.354 2084.25 131.481 2084.77 129.504 2085.15C127.414 2085.56 125.288 2085.81 123.97 2085.91Z" fill="#875E54"/>
<path d="M307 2037.97V2023.5H249V2083.9C251.4 2085.41 257.333 2086.2 260 2086.41C293.6 2088.43 305.333 2054.96 307 2037.97Z" fill="#875E54"/>
<path d="M295.881 2069.61C288.46 2079.96 276.974 2087.93 259.97 2086.91H259.961C258.612 2086.81 256.442 2086.55 254.304 2086.13C252.188 2085.72 250.02 2085.13 248.733 2084.32L248.5 2084.17V2023H307.5V2037.99L307.498 2038.02C306.659 2046.57 303.286 2059.28 295.881 2069.61ZM260.03 2085.91C276.625 2086.91 287.806 2079.15 295.068 2069.03C302.341 2058.88 305.67 2046.37 306.5 2037.94V2024H249.5V2083.61C250.646 2084.25 252.519 2084.77 254.496 2085.15C256.586 2085.56 258.712 2085.81 260.03 2085.91Z" fill="#875E54"/>
<path d="M38 311.5C60 259.5 73.5 163.167 77.5 121.5L77 720H73C65.4 522.4 46.5 365.333 38 311.5Z" fill="#875E54"/>
<path d="M78 121.5L77.5 720.5H72.5186L72.5 720.019C64.9007 522.438 46.0025 365.39 37.5059 311.578L37.4834 311.436L37.5391 311.306C48.5169 285.358 57.3851 248.319 64.0088 212.534C70.6309 176.758 75.0032 142.272 77.002 121.452L78 121.5ZM76.9912 131.284C74.6962 152.283 70.6721 182.025 64.9912 212.716C58.3761 248.454 49.512 285.517 38.5156 311.562C47.0227 365.505 65.8752 522.279 73.4814 719.5H76.5L76.9912 131.284Z" fill="#875E54"/>
<path d="M37.5 1788C59.5 1840 73 1936.33 77 1978L76.5 1379.5H72.5C64.9 1577.1 46 1734.17 37.5 1788Z" fill="#875E54"/>
<path d="M77.5 1978L77 1379H72.0186L72 1379.48C64.4007 1577.06 45.5025 1734.11 37.0059 1787.92L36.9834 1788.06L37.0391 1788.19C48.0169 1814.14 56.8851 1851.18 63.5088 1886.97C70.1309 1922.74 74.5032 1957.23 76.502 1978.05L77.5 1978ZM76.4912 1968.22C74.1962 1947.22 70.1721 1917.47 64.4912 1886.78C57.8761 1851.05 49.012 1813.98 38.0156 1787.94C46.5227 1733.99 65.3752 1577.22 72.9814 1380H76L76.4912 1968.22Z" fill="#875E54"/>
<path d="M53.5 887C63.9727 834.6 70.9546 773.5 73.1364 749.5H77.5L76.4091 1062.5H53.5V887Z" fill="#875E54"/>
<path d="M78.002 749L76.9072 1063H53V886.95L53.0098 886.902C63.4777 834.526 70.4577 773.445 72.6387 749.455L72.6797 749H78.002ZM73.5928 750C71.3648 774.311 64.4064 834.963 54 887.048V1062H75.9111L76.998 750H73.5928Z" fill="#875E54"/>
<path d="M53.5 1212C63.9727 1264.4 70.9546 1325.5 73.1364 1349.5H77.5L76.4091 1036.5H53.5V1212Z" fill="#875E54"/>
<path d="M78.002 1350L76.9072 1036H53V1212.05L53.0098 1212.1C63.4777 1264.47 70.4577 1325.55 72.6387 1349.54L72.6797 1350H78.002ZM73.5928 1349C71.3648 1324.69 64.4064 1264.04 54 1211.95V1037H75.9111L76.998 1349H73.5928Z" fill="#875E54"/>
<path d="M72.3373 753.756C73.6747 737.851 73.0165 724.978 72.5203 720.529L77.9087 720.164L76.7302 753.91L72.3373 753.756Z" fill="#875E54"/>
<path d="M71.7723 1340.54C73.2955 1359.1 72.5798 1374.11 72.0315 1379.3L78.0646 1379.73L76.6899 1340.37L71.7723 1340.54Z" fill="#875E54"/>
<path d="M346.065 311.5C324.065 259.5 310.565 163.167 306.565 121.5L307.065 720H311.065C318.665 522.4 337.565 365.333 346.065 311.5Z" fill="#875E54"/>
<path d="M306.065 121.5L306.565 720.5H311.546L311.565 720.019C319.164 522.438 338.062 365.39 346.559 311.578L346.581 311.436L346.526 311.306C335.548 285.358 326.679 248.319 320.056 212.534C313.434 176.758 309.061 142.272 307.063 121.452L306.065 121.5ZM307.073 131.284C309.368 152.283 313.392 182.025 319.073 212.716C325.688 248.454 334.553 285.517 345.549 311.562C337.042 365.505 318.189 522.279 310.583 719.5H307.565L307.073 131.284Z" fill="#875E54"/>
<path d="M346.565 1788C324.565 1840 311.065 1936.33 307.065 1978L307.565 1379.5H311.565C319.165 1577.1 338.065 1734.17 346.565 1788Z" fill="#875E54"/>
<path d="M306.565 1978L307.065 1379H312.046L312.065 1379.48C319.664 1577.06 338.562 1734.11 347.059 1787.92L347.081 1788.06L347.026 1788.19C336.048 1814.14 327.179 1851.18 320.556 1886.97C313.934 1922.74 309.561 1957.23 307.563 1978.05L306.565 1978ZM307.573 1968.22C309.868 1947.22 313.892 1917.47 319.573 1886.78C326.188 1851.05 335.053 1813.98 346.049 1787.94C337.542 1733.99 318.689 1577.22 311.083 1380H308.065L307.573 1968.22Z" fill="#875E54"/>
<path d="M330.565 887C320.092 834.6 313.11 773.5 310.928 749.5H306.565L307.655 1062.5H330.565V887Z" fill="#875E54"/>
<path d="M306.063 749L307.157 1063H331.065V886.95L331.055 886.902C320.587 834.526 313.607 773.445 311.426 749.455L311.385 749H306.063ZM310.472 750C312.7 774.311 319.658 834.963 330.065 887.048V1062H308.153L307.067 750H310.472Z" fill="#875E54"/>
<path d="M330.565 1212C320.092 1264.4 313.11 1325.5 310.928 1349.5H306.565L307.655 1036.5H330.565V1212Z" fill="#875E54"/>
<path d="M306.063 1350L307.157 1036H331.065V1212.05L331.055 1212.1C320.587 1264.47 313.607 1325.55 311.426 1349.54L311.385 1350H306.063ZM310.472 1349C312.7 1324.69 319.658 1264.04 330.065 1211.95V1124.48V1037H308.153L307.067 1349H310.472Z" fill="#875E54"/>
<path d="M311.727 753.756C310.39 737.851 311.048 724.978 311.544 720.529L306.156 720.164L307.334 753.91L311.727 753.756Z" fill="#875E54"/>
<path d="M312.292 1340.54C310.769 1359.1 311.485 1374.11 312.033 1379.3L306 1379.73L307.375 1340.37L312.292 1340.54Z" fill="#875E54"/>
<path d="M47.04 1997.35C61.152 1990.45 77.56 1967.24 84 1956.5V2023.24C63.84 2022.32 41.16 2034.36 32.34 2040.5C24.948 2024.85 7.7 2009.05 0 2003.1L2.94 1997.35C18.06 2003.1 29.4 2005.98 47.04 1997.35Z" fill="#875E54"/>
<path d="M335.96 1997.35C321.848 1990.45 305.44 1967.24 299 1956.5V2023.24C319.16 2022.32 341.84 2034.36 350.66 2040.5C358.052 2024.85 375.3 2009.05 383 2003.1L380.06 1997.35C364.94 2003.1 353.6 2005.98 335.96 1997.35Z" fill="#875E54"/>
<path d="M112.5 1979.5C103.7 1972.7 94.8333 1955.33 91.5 1947.5V1979.5H112.5Z" fill="#875E54"/>
<path d="M270.5 1979.5C279.3 1972.7 288.167 1955.33 291.5 1947.5V1979.5H270.5Z" fill="#875E54"/>
<path d="M113.5 93.4999C104.7 100.3 95.8333 117.667 92.5 125.5V93.4999H113.5Z" fill="#875E54"/>
<path d="M271.5 93.4999C280.3 100.3 289.167 117.667 292.5 125.5V93.4999H271.5Z" fill="#875E54"/>
<path d="M37.5 80.9998C53.1 76.5998 70 86.8331 76.5 92.4998V63C46.9 58.6 35.8333 71.1666 34 78L37.5 80.9998Z" fill="#875E54"/>
<path d="M346.5 81.0027C330.9 76.6027 314 86.8361 307.5 92.5027V63.0029C337.1 58.6029 348.167 71.1696 350 78.0029L346.5 81.0027Z" fill="#875E54"/>
<path d="M99.5 1364.5C99.5 1426.36 94.1274 1476.5 87.5 1476.5C80.8726 1476.5 75.5 1426.36 75.5 1364.5C75.5 1302.64 80.8726 1252.5 87.5 1252.5C94.1274 1252.5 99.5 1302.64 99.5 1364.5Z" fill="#875E54"/>
<path d="M307.5 1364.5C307.5 1426.36 302.127 1476.5 295.5 1476.5C288.873 1476.5 283.5 1426.36 283.5 1364.5C283.5 1302.64 288.873 1252.5 295.5 1252.5C302.127 1252.5 307.5 1302.64 307.5 1364.5Z" fill="#875E54"/>
<path d="M99.5 734.5C99.5 796.356 94.1274 846.5 87.5 846.5C80.8726 846.5 75.5 796.356 75.5 734.5C75.5 672.644 80.8726 622.5 87.5 622.5C94.1274 622.5 99.5 672.644 99.5 734.5Z" fill="#875E54"/>
<path d="M307.5 734.5C307.5 796.356 302.127 846.5 295.5 846.5C288.873 846.5 283.5 796.356 283.5 734.5C283.5 672.644 288.873 622.5 295.5 622.5C302.127 622.5 307.5 672.644 307.5 734.5Z" fill="#875E54"/>
<path d="M135.5 33.7C135.493 33.2844 135.493 32.8838 135.5 32.4999V33.7C135.665 43.3895 139.775 61.1986 155.5 63.4999H135.5V33.7Z" fill="#875E54"/>
<path d="M248.5 33.7C248.507 33.2844 248.507 32.8838 248.5 32.4999V33.7C248.335 43.3895 244.225 61.1986 228.5 63.4999H248.5V33.7Z" fill="#875E54"/>
<path d="M249.5 2053.3C249.507 2053.72 249.507 2054.12 249.5 2054.5V2053.3C249.335 2043.61 245.225 2025.8 229.5 2023.5H249.5V2053.3Z" fill="#875E54"/>
<path d="M135.505 2053.3C135.498 2053.72 135.498 2054.12 135.505 2054.5V2053.3C135.67 2043.61 139.78 2025.8 155.505 2023.5H135.505V2053.3Z" fill="#875E54"/>
<path d="M78 1966.5C67.2 1864.1 48.5 1804.5 40.5 1787.5C65.5 1782 78.5 1758.5 85.5 1748.5V1957L78 1966.5Z" fill="#694C45"/>
<path d="M305.5 1966.5C316.3 1864.1 335 1804.5 343 1787.5C318 1782 305 1758.5 298 1748.5V1957L305.5 1966.5Z" fill="#694C45"/>
<path d="M77.5 1345.5C71.1 1287.5 63.1667 1235 60 1216C65.2 1223.6 81.1667 1224.17 88.5 1223.5V1263.5C88.5 1263.5 96.3333 1351.33 96 1380C89.6 1362 81 1371.5 77.5 1378.5C77.5 1378.5 78.1667 1353.17 77.5 1345.5Z" fill="#694C45"/>
<path d="M307.51 1345.5C313.91 1287.5 321.844 1235 325.01 1216C319.81 1223.6 303.844 1224.17 296.51 1223.5V1263.5C296.51 1263.5 288.677 1351.33 289.01 1380C295.41 1362 304.01 1371.5 307.51 1378.5C307.51 1378.5 306.844 1353.17 307.51 1345.5Z" fill="#694C45"/>
<path d="M74.5 654.5C74.5 654.5 54 394.667 44.5 314C56.9 337.2 74.5 317.667 83.5 304V639L74.5 654.5Z" fill="#694C45"/>
<path d="M310 654.5C310 654.5 330.5 394.667 340 314C327.6 337.2 310 317.667 301 304V639L310 654.5Z" fill="#694C45"/>
<path d="M134 2050C135 2032 145 2023.5 153.5 2022.5H121.5C119.1 2036.1 128.667 2046.5 134 2050Z" fill="#694C45"/>
<path d="M78 2038.5C85.6 2085.3 120 2089.5 134.5 2083V2081C95.7003 2079 89.0001 2050.17 90.5 2036C84.9 2034 79.8333 2027.17 78 2024V2038.5Z" fill="#694C45"/>
<path d="M99.5 1989.5C84.3 1998.3 77.6667 2015.17 76.5 2022C53 2026.5 40.5 2034.33 32.5 2039.5C26.5 2026 12.8333 2013.17 5 2006.5C13.5 2009 30.1667 2022.17 35.5 2027C50.7 2022.6 82.1667 2000.17 96 1989.5H99.5Z" fill="#694C45"/>
<path d="M251.001 2050C250.001 2032 240.001 2023.5 231.501 2022.5H263.501C265.901 2036.1 256.334 2046.5 251.001 2050Z" fill="#694C45"/>
<path d="M306.5 2038.5C298.9 2085.3 264 2090 249.5 2083.5V2081C288.3 2079 296.001 2050.17 294.501 2036C300.101 2034 304.167 2027.17 306 2024L306.5 2038.5Z" fill="#694C45"/>
<path d="M283.5 1989.5C298.7 1998.3 305.333 2015.17 306.5 2022C330 2026.5 342.5 2034.33 350.5 2039.5C356.5 2026 370.167 2013.17 378 2006.5C369.5 2009 352.833 2022.17 347.5 2027C332.3 2022.6 300.833 2000.17 287 1989.5H283.5Z" fill="#694C45"/>
<path d="M155.5 2022.12H229.417L229 2021.12C224.6 2019.92 211.5 2017.5 198.5 2017C193 2017.5 188.5 2013.33 187 2012C173.4 1999.2 160.667 1999.45 155.5 2000.12V2001.62C161.9 2010.02 158.167 2018.78 155.5 2022.12Z" fill="#694C45"/>
<path d="M258 89.8853H124.15L124.905 89.3064C132.873 88.6114 156.595 87.2113 180.135 86.9217C190.095 87.2113 198.243 84.7983 200.959 84.026C225.586 76.613 248.644 76.7581 258 77.1442V78.0129C246.411 82.8777 253.171 87.9548 258 89.8853Z" fill="#694C45"/>
<path d="M76.5 90.499C62.1 78.899 48.8333 77.999 44 78.999L43 76.9995C61 68.1995 75.5 76.6662 80.5 81.9995C96.1 80.7995 108 87.1659 112 90.499L110.5 92.9995C98.9 90.5995 83 90.3325 76.5 90.499Z" fill="#694C45"/>
<path d="M80 126C80.4 106 90.1667 94.3331 95 90.9997C89 89.3997 79.8333 90 76.5 90.5L77 92L77.5 126H80Z" fill="#694C45"/>
<path d="M113.5 73C102.3 67.8 85.1667 64.5 78 63.5V49C78 40.6 83 29.1667 85.5 24.5L86.5 29C82.9 35.8 83.6667 45.1667 84.5 49C94.1 61.4 116.833 67.1667 127 68.5L128.5 69.5C122.9 72.3 116.167 73 113.5 73Z" fill="#694C45"/>
<path d="M307.5 90.499C321.9 78.899 335.167 77.999 340 78.999L341 76.9995C323 68.1995 308.5 76.6662 303.5 81.9995C287.9 80.7995 276 87.1659 272 90.499L273.5 92.9995C285.1 90.5995 301 90.3325 307.5 90.499Z" fill="#694C45"/>
<path d="M304 126C303.6 106 293.833 94.3331 289 90.9997C295 89.3997 304.167 90 307.5 90.5L307 92L306.5 126H304Z" fill="#694C45"/>
<path d="M271 73C282.2 67.8 299.333 64.5 306.5 63.5V49C306.5 40.6 301.5 29.1667 299 24.5L298 29C301.6 35.8 300.833 45.1667 300 49C290.4 61.4 267.667 67.1667 257.5 68.5L256 69.5C261.6 72.3 268.333 73 271 73Z" fill="#694C45"/>
<path d="M63.5 233C70.5 195 72 179.5 75 154L90.5 172V275.5L63.5 233Z" fill="#808088"/>
<path d="M321 233C314 195 312.5 179.5 309.5 154L294 172V275.5L321 233Z" fill="#808088"/>
<path d="M88 1483V1622.5L58.5 1663C62.9 1612.2 67.3333 1539.17 69 1509L88 1483Z" fill="#808088"/>
<path d="M296 1483V1622.5L325.5 1663C321.1 1612.2 316.667 1539.17 315 1509L296 1483Z" fill="#808088"/>
<path d="M92.5 13C108.9 -2.59997 127.667 0.166699 135 3.50003L134 36.5L131.5 6.5L128.5 5.5C114.9 1.9 98.8333 9.00002 92.5 13Z" fill="#B5897E"/>
<path d="M291.5 13C275.1 -2.59997 256.333 0.166699 249 3.50003L250 36.5L252.5 6.5L255.5 5.5C269.1 1.9 285.167 9.00002 291.5 13Z" fill="#B5897E"/>
<path d="M80 64.5007C51 58.0008 37.5 70 34.5 77.5004L36.5 76.0006C46.1 62.8006 69.5 63.0008 80 64.5007Z" fill="#B5897E"/>
<path d="M304 64.5007C333 58.0008 346.5 70 349.5 77.5004L347.5 76.0006C337.9 62.8006 314.5 63.0008 304 64.5007Z" fill="#B5897E"/>
<path d="M90.5 172L75 154L74.5 157.5L90.5 178V172Z" fill="#B5897E"/>
<path d="M294 172L309.5 154L310 157.5L294 178V172Z" fill="#B5897E"/>
<path d="M77 749C73.4 789.4 61.1667 857.5 55.5 886.5H59.5C65.1 862.9 82.1667 840.667 90 832.5C100.4 754.1 94.3333 671.833 90 640.5L77 749Z" fill="#B5897E"/>
<path d="M306.742 749C310.342 789.4 322.576 857.5 328.242 886.5H324.242C318.642 862.9 301.576 840.667 293.742 832.5C283.342 754.1 289.409 671.833 293.742 640.5L306.742 749Z" fill="#B5897E"/>
<path d="M68.5 206.5C65.3 229.3 54.5 267.667 49.5 284L55.5 278.5C62.7 255.7 68.5 233.667 70.5 225.5L68.5 206.5Z" fill="#B5897E"/>
<path d="M316 206.5C319.2 229.3 330 267.667 335 284L329 278.5C321.8 255.7 316 233.667 314 225.5L316 206.5Z" fill="#B5897E"/>
<path d="M46 1757.5C52.4 1731.5 60 1640 63 1597.5L69.5 1559.5V1666C64.3 1696.4 51.6667 1739.67 46 1757.5Z" fill="#B5897E"/>
<path d="M337.5 1757.5C331.1 1731.5 323.5 1640 320.5 1597.5L314 1559.5V1666C319.2 1696.4 331.833 1739.67 337.5 1757.5Z" fill="#B5897E"/>
<path d="M76 1970C50.8 2012 18.1667 2006.83 5 1999V2001C39.4 2021 68.6667 1990.67 79 1973L83.5 1964V1960.5L76 1970Z" fill="#B5897E"/>
<path d="M307.5 1970C332.7 2012 365.333 2006.83 378.5 1999V2001C344.1 2021 314.833 1990.67 304.5 1973L300 1964V1960.5L307.5 1970Z" fill="#B5897E"/>
<path d="M102 1988.5C88.4 1997.3 82 2008.5 80.5 2013C85 2008 98.5 2007 105.5 2011.5C114 1992.5 128.5 1992.67 135.5 1988.5C125.1 1982.5 108.833 1986 102 1988.5Z" fill="#808088"/>
<path d="M280.5 1988.5C294.1 1997.3 300.5 2008.5 302 2013C297.5 2008 284 2007 277 2011.5C268.5 1992.5 254 1992.67 247 1988.5C257.4 1982.5 273.667 1986 280.5 1988.5Z" fill="#808088"/>
<path d="M126 66.5C112.8 65.7 97.8333 58.1667 92 54.5C125.6 62.1 136.667 57 138 53.5C139.2 59.1 147.167 62.8333 151 64L126 66.5Z" fill="#808088"/>
<path d="M258 66.5C271.2 65.7 286.167 58.1667 292 54.5C258.4 62.1 247.333 57 246 53.5C244.8 59.1 236.833 62.8333 233 64L258 66.5Z" fill="#808088"/>
<path d="M329 886L324 864L326 886V1077H329V886Z" fill="#C5A69E"/>
<path d="M329 1212L320.5 1245.5L325.5 1212L326 1021H329V1212Z" fill="#C5A69E"/>
<path d="M55 886L60 864L58 886V1077H55V886Z" fill="#C5A69E"/>
<path d="M55 1212L63.5 1245.5L58.5 1212L58 1021H55V1212Z" fill="#C5A69E"/>
</g>
<defs>
<filter id="filter0_d_19_63" x="0" y="0" width="397" height="2095" filterUnits="userSpaceOnUse" color-interpolation-filters="sRGB">
<feFlood flood-opacity="0" result="BackgroundImageFix"/>
<feColorMatrix in="SourceAlpha" type="matrix" values="0 0 0 0 0 0 0 0 0 0 0 0 0 0 0 0 0 0 127 0" result="hardAlpha"/>
<feOffset dx="10" dy="4"/>
<feGaussianBlur stdDeviation="2"/>
<feComposite in2="hardAlpha" operator="out"/>
<feColorMatrix type="matrix" values="0 0 0 0 0.945513 0 0 0 0 0.784796 0 0 0 0 0.68489 0 0 0 0.81 0"/>
<feBlend mode="normal" in2="BackgroundImageFix" result="effect1_dropShadow_19_63"/>
<feBlend mode="normal" in="SourceGraphic" in2="effect1_dropShadow_19_63" result="shape"/>
</filter>
</defs>
</svg>
